<?xml version="1.0" encoding="UTF-8"?>
<svg id="Layer_2" xmlns="http://www.w3.org/2000/svg" viewBox="0 0 173.02 22.1">
  <defs>
    <style>
      .cls-1 {
        fill: #231f20;
      }
    </style>
  </defs>
  <g id="Layer_1-2" data-name="Layer_1">
    <g>
      <path class="cls-1" d="M.13.3c.09-.09.2-.13.32-.13h3.65c.5,0,.96.13,1.39.38.43.26.76.6,1.01,1.04s.37.91.37,1.41-.12.95-.37,1.36c-.24.41-.58.73-1,.96-.42.23-.89.35-1.39.35H.54v-.73h3.56c.38,0,.71-.09,1.01-.26.3-.17.54-.41.71-.7.18-.3.26-.62.26-.97s-.09-.71-.27-1.03c-.18-.32-.42-.57-.73-.76-.3-.19-.64-.29-1-.29H.52l.24-.24v8.36h-.76V.62c0-.13.04-.24.13-.32ZM3.5,5.42l.74-.19,2.66,3.82h-.9l-2.51-3.62Z"/>
      <path class="cls-1" d="M12.93.08c.08-.05.16-.08.25-.08s.17.03.25.08c.08.05.13.13.17.22l3.68,8.75h-.85L13.02,1h.31l-3.46,8.05h-.85L12.76.3c.04-.1.1-.17.17-.22Z"/>
      <path class="cls-1" d="M20.29.31c.09-.09.2-.14.32-.14h6.05v.76h-5.99l.24-.24v8.36h-.76V.62c0-.12.04-.23.13-.32ZM20.75,4.22h5.56v.77h-5.56v-.77Z"/>
      <path class="cls-1" d="M29.8.31c.09-.09.2-.14.32-.14h6.05v.76h-5.99l.24-.24v8.36h-.76V.62c0-.12.04-.23.13-.32ZM30.25,4.22h5.56v.77h-5.56v-.77Z"/>
      <path class="cls-1" d="M41.03.08c.08-.05.16-.08.25-.08s.17.03.25.08c.08.05.13.13.17.22l3.68,8.75h-.85l-3.41-8.05h.31l-3.46,8.05h-.85L40.86.3c.04-.1.1-.17.17-.22Z"/>
      <path class="cls-1" d="M48.16,8.92c-.09-.09-.13-.2-.13-.32V.62c0-.13.04-.24.13-.32.09-.09.2-.13.32-.13h6.29v.76h-6.23l.24-.24v7.85l-.24-.24h6.23v.76h-6.29c-.13,0-.24-.04-.32-.13ZM48.61,4.22h5.8v.77h-5.8v-.77Z"/>
      <path class="cls-1" d="M58.74,8.92c-.09-.09-.13-.2-.13-.32V.17h.76v8.36l-.24-.24h6.01v.76h-6.07c-.13,0-.24-.04-.32-.13Z"/>
      <path class="cls-1" d="M68.27,8.92c-.09-.09-.13-.2-.13-.32V.17h.76v8.36l-.24-.24h6.01v.76h-6.07c-.13,0-.24-.04-.32-.13Z"/>
      <path class="cls-1" d="M78.97,8.54c-.7-.42-1.25-.98-1.66-1.69-.4-.71-.61-1.48-.61-2.31s.2-1.61.61-2.3c.4-.69.95-1.24,1.65-1.64.7-.4,1.46-.61,2.28-.61s1.57.2,2.26.6c.69.4,1.24.95,1.65,1.64.41.7.61,1.46.61,2.3s-.2,1.61-.61,2.32c-.4.71-.95,1.27-1.64,1.68s-1.45.62-2.28.62-1.57-.21-2.27-.62ZM83.12,7.91c.57-.35,1.02-.82,1.36-1.41.34-.59.51-1.24.51-1.96s-.17-1.34-.5-1.92c-.33-.58-.78-1.03-1.36-1.37-.57-.34-1.21-.51-1.9-.51s-1.33.17-1.9.51c-.57.34-1.03.8-1.36,1.37-.34.58-.5,1.22-.5,1.92s.17,1.36.5,1.96c.34.59.79,1.06,1.37,1.41.58.35,1.21.52,1.9.52s1.32-.17,1.88-.52Z"/>
      <path class="cls-1" d="M93.1.13c.09-.09.2-.13.32-.13.14,0,.26.06.36.19l3.49,5.53h-.24l3.49-5.53c.1-.13.22-.19.37-.19.12,0,.22.04.31.13.09.09.13.19.13.31v8.6h-.76V1l.26.02-3.7,5.88-3.7-5.88.26-.02v8.05h-.76V.44c0-.12.04-.22.13-.31Z"/>
      <path class="cls-1" d="M107.89.08c.08-.05.16-.08.25-.08s.17.03.25.08c.08.05.13.13.17.22l3.68,8.75h-.85l-3.41-8.05h.31l-3.46,8.05h-.85l3.73-8.75c.04-.1.1-.17.17-.22Z"/>
      <path class="cls-1" d="M115.01.3c.09-.09.2-.13.32-.13h3.65c.5,0,.96.13,1.39.38.43.26.76.6,1.01,1.04s.37.91.37,1.41-.12.95-.37,1.36c-.24.41-.58.73-1,.96-.42.23-.89.35-1.39.35h-3.56v-.73h3.56c.38,0,.71-.09,1.01-.26.3-.17.54-.41.71-.7.18-.3.26-.62.26-.97s-.09-.71-.27-1.03c-.18-.32-.42-.57-.73-.76-.3-.19-.64-.29-1-.29h-3.59l.24-.24v8.36h-.76V.62c0-.13.04-.24.13-.32ZM118.38,5.42l.74-.19,2.66,3.82h-.9l-2.51-3.62Z"/>
      <path class="cls-1" d="M124.99.3c.09-.09.2-.13.32-.13h3.65c.5,0,.96.13,1.39.38.43.26.76.6,1.01,1.04s.37.91.37,1.41-.12.95-.37,1.36c-.24.41-.58.73-1,.96-.42.23-.89.35-1.39.35h-3.56v-.73h3.56c.38,0,.71-.09,1.01-.26.3-.17.54-.41.71-.7.18-.3.26-.62.26-.97s-.09-.71-.27-1.03c-.18-.32-.42-.57-.73-.76-.3-.19-.64-.29-1-.29h-3.59l.24-.24v8.36h-.76V.62c0-.13.04-.24.13-.32ZM128.36,5.42l.74-.19,2.66,3.82h-.9l-2.51-3.62Z"/>
      <path class="cls-1" d="M135.22,8.92c-.09-.09-.13-.2-.13-.32V.62c0-.13.04-.24.13-.32.09-.09.2-.13.32-.13h6.29v.76h-6.23l.24-.24v7.85l-.24-.24h6.23v.76h-6.29c-.13,0-.24-.04-.32-.13ZM135.67,4.22h5.8v.77h-5.8v-.77Z"/>
      <path class="cls-1" d="M145.8,8.92c-.09-.09-.13-.2-.13-.32V.17h.76v8.36l-.24-.24h6.01v.76h-6.07c-.13,0-.24-.04-.32-.13Z"/>
      <path class="cls-1" d="M155.33,8.92c-.09-.09-.13-.2-.13-.32V.17h.76v8.36l-.24-.24h6.01v.76h-6.07c-.13,0-.24-.04-.32-.13Z"/>
      <path class="cls-1" d="M166.03,8.54c-.7-.42-1.25-.98-1.66-1.69-.4-.71-.61-1.48-.61-2.31s.2-1.61.61-2.3c.4-.69.95-1.24,1.65-1.64.7-.4,1.46-.61,2.28-.61s1.57.2,2.26.6c.69.4,1.24.95,1.65,1.64.41.7.61,1.46.61,2.3s-.2,1.61-.61,2.32c-.4.71-.95,1.27-1.64,1.68s-1.45.62-2.28.62-1.57-.21-2.27-.62ZM170.18,7.91c.57-.35,1.02-.82,1.36-1.41.34-.59.51-1.24.51-1.96s-.17-1.34-.5-1.92c-.33-.58-.78-1.03-1.36-1.37-.57-.34-1.21-.51-1.9-.51s-1.33.17-1.9.51c-.57.34-1.03.8-1.36,1.37-.34.58-.5,1.22-.5,1.92s.17,1.36.5,1.96c.34.59.79,1.06,1.37,1.41.58.35,1.21.52,1.9.52s1.32-.17,1.88-.52Z"/>
    </g>
    <g>
      <path class="cls-1" d="M129.72,15.45c.13-.08.27-.12.43-.12s.29.04.41.12c.12.08.21.19.27.33l2.65,6.21h-1.79l-1.77-4.13h.42l-1.77,4.13h-1.79l2.65-6.21c.06-.14.15-.25.28-.33Z"/>
      <path class="cls-1" d="M135.68,15.63c.16-.16.35-.24.57-.24h2.67c.43,0,.82.11,1.19.32.36.21.65.5.86.86.21.36.32.76.32,1.19s-.11.81-.32,1.16c-.21.34-.5.61-.86.8-.36.19-.76.29-1.19.29h-2.07v-1.49h2.07c.14,0,.26-.03.38-.1.12-.07.21-.16.28-.28.07-.12.1-.24.1-.38s-.03-.26-.1-.38c-.07-.12-.16-.21-.28-.28-.12-.07-.24-.1-.38-.1h-2.27l.4-.4v5.4h-1.61v-5.8c0-.22.08-.41.24-.57ZM137.86,19.66l1.19-.87,2.28,3.21h-1.84l-1.62-2.34Z"/>
      <path class="cls-1" d="M143.42,15.39h5.71v1.61h-5.71v-1.61ZM145.47,15.84h1.61v6.16h-1.61v-6.16Z"/>
      <path class="cls-1" d="M151.27,15.39h5.35v1.61h-5.35v-1.61ZM151.27,20.39h5.35v1.61h-5.35v-1.61ZM153.15,15.84h1.61v5.8h-1.61v-5.8Z"/>
      <path class="cls-1" d="M160.49,21.91c-.54-.13-1.05-.31-1.53-.56l.66-1.45c.4.19.82.34,1.25.44s.86.15,1.28.15c.31,0,.57-.02.77-.06.2-.04.35-.1.44-.17.1-.07.14-.17.14-.28,0-.15-.05-.26-.16-.34-.11-.08-.25-.13-.42-.17-.18-.04-.43-.07-.77-.11-.61-.07-1.11-.15-1.5-.25s-.74-.28-1.04-.55c-.3-.27-.46-.67-.46-1.18,0-.43.13-.8.4-1.12.27-.32.63-.57,1.09-.74s.96-.26,1.51-.26c.5,0,1,.05,1.5.14.5.1.96.23,1.39.41l-.65,1.43c-.76-.3-1.51-.46-2.24-.46-.31,0-.56.01-.74.04-.18.03-.33.08-.44.17-.11.09-.17.22-.17.39,0,.11.07.2.2.27s.28.12.46.15c.18.03.41.06.69.1.58.06,1.08.15,1.5.26.42.11.78.32,1.08.61.29.29.44.7.44,1.21,0,.43-.14.8-.41,1.12-.27.32-.64.57-1.1.74-.46.17-.96.25-1.51.25s-1.12-.06-1.66-.19Z"/>
      <path class="cls-1" d="M167.31,15.39h5.71v1.61h-5.71v-1.61ZM169.36,15.84h1.61v6.16h-1.61v-6.16Z"/>
    </g>
  </g>
</svg>